<svg width="18" height="14" viewBox="0 0 18 14" fill="none" xmlns="http://www.w3.org/2000/svg">
<path d="M17.1251 2.62549V11.3755C17.1251 11.8728 16.9276 12.3497 16.5759 12.7013C16.2243 13.0529 15.7474 13.2505 15.2501 13.2505H2.75012C2.25284 13.2505 1.77593 13.0529 1.4243 12.7013C1.07267 12.3497 0.875122 11.8728 0.875122 11.3755V2.62549M17.1251 2.62549C17.1251 2.12821 16.9276 1.65129 16.5759 1.29966C16.2243 0.948033 15.7474 0.750488 15.2501 0.750488H2.75012C2.25284 0.750488 1.77593 0.948033 1.4243 1.29966C1.07267 1.65129 0.875122 2.12821 0.875122 2.62549M17.1251 2.62549V2.82799C17.1252 3.14811 17.0432 3.46291 16.8871 3.7424C16.7311 4.02189 16.506 4.25677 16.2335 4.42466L9.98346 8.27049C9.68779 8.4526 9.34737 8.54903 9.00012 8.54903C8.65288 8.54903 8.31245 8.4526 8.01679 8.27049L1.76679 4.42549C1.49422 4.2576 1.26918 4.02273 1.1131 3.74324C0.957013 3.46374 0.875087 3.14894 0.875122 2.82882V2.62549" stroke="#1463FF" stroke-width="1.5" stroke-linecap="round" stroke-linejoin="round"/>
</svg>
