<svg width="31" height="29" viewBox="0 0 31 29" fill="none" xmlns="http://www.w3.org/2000/svg">
<g clip-path="url(#clip0_104_322)">
<rect width="31" height="29" fill="white"/>
<path d="M13.6 0.679999C13.7333 0.679999 13.8 0.746665 13.8 0.879999V2C13.8 2.13333 13.7333 2.2 13.6 2.2C11.2 2.25333 9.12 2.76 7.36 3.72C5.62667 4.68 4.28 6.04 3.32 7.8C2.38667 9.53333 1.92 11.5467 1.92 13.84C1.92 14.5067 1.96 15.2 2.04 15.92C2.28 18.0267 2.97333 19.88 4.12 21.48C5.29333 23.0533 6.81333 24.28 8.68 25.16C10.5467 26.04 12.6533 26.48 15 26.48C15.2133 26.48 15.32 26.5467 15.32 26.68V27.8C15.32 27.9333 15.2267 28 15.04 28C12.4267 28 10.0667 27.5067 7.96 26.52C5.88 25.5333 4.18667 24.1467 2.88 22.36C1.57333 20.5467 0.786667 18.4533 0.52 16.08C0.44 15.3067 0.4 14.5733 0.4 13.88C0.4 11.2933 0.933333 9.01333 2 7.04C3.09333 5.06666 4.62667 3.53333 6.6 2.44C8.6 1.32 10.9333 0.733332 13.6 0.679999ZM16.3431 0.639999C19.3831 0.666666 21.9831 1.33333 24.1431 2.64C26.3031 3.94667 27.9298 5.64 29.0231 7.72C30.1431 9.8 30.7031 12 30.7031 14.32C30.7031 16.6133 30.1698 18.7733 29.1031 20.8C28.0631 22.8267 26.5031 24.5067 24.4231 25.84C22.3431 27.1467 19.8231 27.8667 16.8631 28C16.7031 28 16.6231 27.92 16.6231 27.76C16.7831 25.7067 16.8631 23.1867 16.8631 20.2C16.8631 14.1467 16.6098 7.70667 16.1031 0.879999C16.1031 0.719999 16.1831 0.639999 16.3431 0.639999ZM18.2631 26.36C20.6365 26.0667 22.6498 25.3467 24.3031 24.2C25.9565 23.0267 27.1965 21.5867 28.0231 19.88C28.8765 18.1733 29.3031 16.3733 29.3031 14.48C29.3031 12.5333 28.8498 10.68 27.9431 8.92C27.0631 7.13333 25.7565 5.65333 24.0231 4.48C22.2898 3.30667 20.1965 2.61333 17.7431 2.4C18.1698 8.66667 18.3831 14.7867 18.3831 20.76C18.3831 22.8933 18.3431 24.76 18.2631 26.36Z" fill="black"/>
<line x1="30" y1="14.5" x2="19" y2="14.5" stroke="black"/>
<line x1="30" y1="15" x2="19" y2="15" stroke="black"/>
<path d="M28.996 13.5037C30.4121 13.5061 31.8281 13.5115 33.2442 13.5115" stroke="white" stroke-linecap="square"/>
<path d="M28.2416 12.9581C30.1868 12.9708 32.1336 13.0575 34.0786 13.0875C37.4834 13.14 40.8882 13.153 44.2934 13.1666" stroke="white" stroke-linecap="square"/>
<path d="M27.7966 12.4934C32.6594 12.7281 37.5247 12.9286 42.379 13.2816" stroke="white" stroke-linecap="square"/>
<path d="M19.0802 16.0762C19.065 16.0036 19.067 16.0224 19.0623 15.9139C19.0404 15.4101 19.0405 14.9041 19.0369 14.4001C19.0281 13.1839 19.0394 11.9693 19.0623 10.7537" stroke="white" stroke-linecap="square"/>
</g>
<defs>
<clipPath id="clip0_104_322">
<rect width="31" height="29" fill="white"/>
</clipPath>
</defs>
</svg>
