<svg width="40" height="40" viewBox="0 0 40 40" fill="none" xmlns="http://www.w3.org/2000/svg">
<g filter="url(#filter0_i_212_3473)">
<rect width="40" height="40" rx="8" fill="#FFC700"/>
<rect x="1.12677" y="1.12677" width="37.7465" height="37.7465" rx="6.87323" stroke="#191921" stroke-opacity="0.16" stroke-width="2.25353"/>
<path d="M21.875 15.0726C21.875 14.7768 22.03 14.5093 22.2092 14.2735C22.3933 14.0318 22.5 13.7451 22.5 13.4376C22.5 12.5743 21.6608 11.8751 20.625 11.8751C19.5892 11.8751 18.75 12.5751 18.75 13.4376C18.75 13.7451 18.8567 14.0318 19.0408 14.2735C19.22 14.5093 19.375 14.7768 19.375 15.0726C19.3754 15.1441 19.3614 15.2149 19.3338 15.2808C19.3063 15.3468 19.2658 15.4065 19.2147 15.4565C19.1636 15.5065 19.1031 15.5457 19.0365 15.5718C18.97 15.5979 18.8989 15.6104 18.8275 15.6085C17.6681 15.5751 16.5106 15.4916 15.3583 15.3585C15.5133 16.7026 15.6025 18.0668 15.6208 19.4476C15.6216 19.52 15.608 19.5919 15.5808 19.659C15.5535 19.7261 15.5132 19.7871 15.4622 19.8385C15.4112 19.8899 15.3505 19.9307 15.2836 19.9584C15.2167 19.9862 15.1449 20.0003 15.0725 20.0001C14.7767 20.0001 14.5092 19.8451 14.2733 19.666C14.0345 19.4794 13.7406 19.3771 13.4375 19.3751C12.5742 19.3751 11.875 20.2143 11.875 21.2501C11.875 22.286 12.575 23.1251 13.4375 23.1251C13.745 23.1251 14.0317 23.0185 14.2733 22.8343C14.5092 22.6551 14.7767 22.5001 15.0725 22.5001C15.3308 22.5001 15.535 22.7168 15.5158 22.9751C15.4122 24.388 15.2336 25.7945 14.9808 27.1885C16.2458 27.3468 17.5292 27.446 18.8275 27.4835C18.8989 27.4854 18.97 27.4729 19.0365 27.4468C19.1031 27.4207 19.1636 27.3815 19.2147 27.3315C19.2658 27.2815 19.3063 27.2218 19.3338 27.1558C19.3614 27.0899 19.3754 27.0191 19.375 26.9476C19.375 26.6518 19.22 26.3843 19.0408 26.1485C18.8543 25.9096 18.752 25.6157 18.75 25.3126C18.75 24.4501 19.59 23.7501 20.625 23.7501C21.6608 23.7501 22.5 24.4501 22.5 25.3126C22.5 25.6201 22.3933 25.9068 22.2092 26.1485C22.03 26.3843 21.8758 26.6518 21.8758 26.9476C21.8758 27.2251 22.1067 27.4468 22.3842 27.431C23.9004 27.3418 25.4103 27.1665 26.9067 26.906C27.1331 25.6045 27.2949 24.2926 27.3917 22.9751C27.396 22.9142 27.3878 22.8531 27.3674 22.7955C27.347 22.738 27.315 22.6852 27.2733 22.6407C27.2316 22.5961 27.1811 22.5606 27.1251 22.5364C27.069 22.5122 27.0086 22.4999 26.9475 22.5001C26.6517 22.5001 26.3842 22.6551 26.1483 22.8343C25.9067 23.0185 25.62 23.1251 25.3125 23.1251C24.45 23.1251 23.75 22.286 23.75 21.2501C23.75 20.2143 24.45 19.3751 25.3125 19.3751C25.6208 19.3751 25.9067 19.4818 26.1483 19.666C26.3842 19.8451 26.6517 20.0001 26.9483 20.0001C27.0208 20.0003 27.0925 19.9862 27.1594 19.9584C27.2263 19.9307 27.287 19.8899 27.338 19.8385C27.3891 19.7871 27.4294 19.7261 27.4566 19.659C27.4838 19.5919 27.4974 19.52 27.4967 19.4476C27.4766 17.9542 27.3737 16.463 27.1883 14.981C25.6167 15.266 24.0133 15.4593 22.3833 15.5551C22.3177 15.5588 22.2521 15.5489 22.1904 15.5263C22.1287 15.5036 22.0724 15.4685 22.0248 15.4233C21.9771 15.378 21.9393 15.3235 21.9135 15.263C21.8878 15.2026 21.8747 15.1383 21.875 15.0726Z" stroke="#050138" stroke-width="1.25" stroke-linecap="round" stroke-linejoin="round"/>
</g>
<defs>
<filter id="filter0_i_212_3473" x="0" y="0" width="40" height="44.5071" filterUnits="userSpaceOnUse" color-interpolation-filters="sRGB">
<feFlood flood-opacity="0" result="BackgroundImageFix"/>
<feBlend mode="normal" in="SourceGraphic" in2="BackgroundImageFix" result="shape"/>
<feColorMatrix in="SourceAlpha" type="matrix" values="0 0 0 0 0 0 0 0 0 0 0 0 0 0 0 0 0 0 127 0" result="hardAlpha"/>
<feOffset dy="4.50706"/>
<feGaussianBlur stdDeviation="2.25353"/>
<feComposite in2="hardAlpha" operator="arithmetic" k2="-1" k3="1"/>
<feColorMatrix type="matrix" values="0 0 0 0 0 0 0 0 0 0 0 0 0 0 0 0 0 0 0.25 0"/>
<feBlend mode="normal" in2="shape" result="effect1_innerShadow_212_3473"/>
</filter>
</defs>
</svg>
