<svg width="40" height="40" viewBox="0 0 40 40" fill="none" xmlns="http://www.w3.org/2000/svg">
<g filter="url(#filter0_i_212_3483)">
<rect width="40" height="40" rx="8" fill="#FFC700"/>
<rect x="1.12677" y="1.12677" width="37.7465" height="37.7465" rx="6.87323" stroke="#191921" stroke-opacity="0.16" stroke-width="2.25353"/>
<path d="M15.75 13.1248H14.5C14.0027 13.1248 13.5258 13.3223 13.1742 13.6739C12.8225 14.0256 12.625 14.5025 12.625 14.9998V16.2498M23.25 13.1248H24.5C24.9973 13.1248 25.4742 13.3223 25.8258 13.6739C26.1775 14.0256 26.375 14.5025 26.375 14.9998V16.2498M26.375 23.7498V24.9998C26.375 25.497 26.1775 25.9739 25.8258 26.3256C25.4742 26.6772 24.9973 26.8748 24.5 26.8748H23.25M15.75 26.8748H14.5C14.0027 26.8748 13.5258 26.6772 13.1742 26.3256C12.8225 25.9739 12.625 25.497 12.625 24.9998V23.7498M22 19.9998C22 20.6628 21.7366 21.2987 21.2678 21.7675C20.7989 22.2364 20.163 22.4998 19.5 22.4998C18.837 22.4998 18.2011 22.2364 17.7322 21.7675C17.2634 21.2987 17 20.6628 17 19.9998C17 19.3367 17.2634 18.7008 17.7322 18.232C18.2011 17.7631 18.837 17.4998 19.5 17.4998C20.163 17.4998 20.7989 17.7631 21.2678 18.232C21.7366 18.7008 22 19.3367 22 19.9998Z" stroke="#050138" stroke-width="1.5" stroke-linecap="round" stroke-linejoin="round"/>
</g>
<defs>
<filter id="filter0_i_212_3483" x="0" y="0" width="40" height="44.5071" filterUnits="userSpaceOnUse" color-interpolation-filters="sRGB">
<feFlood flood-opacity="0" result="BackgroundImageFix"/>
<feBlend mode="normal" in="SourceGraphic" in2="BackgroundImageFix" result="shape"/>
<feColorMatrix in="SourceAlpha" type="matrix" values="0 0 0 0 0 0 0 0 0 0 0 0 0 0 0 0 0 0 127 0" result="hardAlpha"/>
<feOffset dy="4.50706"/>
<feGaussianBlur stdDeviation="2.25353"/>
<feComposite in2="hardAlpha" operator="arithmetic" k2="-1" k3="1"/>
<feColorMatrix type="matrix" values="0 0 0 0 0 0 0 0 0 0 0 0 0 0 0 0 0 0 0.25 0"/>
<feBlend mode="normal" in2="shape" result="effect1_innerShadow_212_3483"/>
</filter>
</defs>
</svg>
