<svg width="15" height="15" viewBox="0 0 15 15" fill="none" xmlns="http://www.w3.org/2000/svg">
<path d="M5.858 6.4235C5.89425 6.18425 5.974 5.974 6.0755 5.79275C6.177 5.6115 6.322 5.45925 6.50325 5.34325C6.67725 5.2345 6.89475 5.18375 7.163 5.1765C7.32975 5.18375 7.482 5.21275 7.61975 5.27075C7.76475 5.336 7.89525 5.423 7.99675 5.53175C8.09825 5.6405 8.178 5.771 8.24325 5.916C8.3085 6.061 8.3375 6.2205 8.34475 6.38H9.6425C9.628 6.03925 9.56275 5.7275 9.4395 5.44475C9.31625 5.162 9.1495 4.9155 8.932 4.7125C8.7145 4.5095 8.4535 4.35 8.149 4.234C7.8445 4.118 7.511 4.06725 7.14125 4.06725C6.67 4.06725 6.25675 4.147 5.90875 4.31375C5.56075 4.4805 5.27075 4.698 5.03875 4.98075C4.80675 5.2635 4.63275 5.58975 4.524 5.96675C4.41525 6.34375 4.35 6.73525 4.35 7.15575V7.3515C4.35 7.772 4.408 8.1635 4.51675 8.5405C4.6255 8.9175 4.7995 9.24375 5.0315 9.51925C5.2635 9.79475 5.5535 10.0195 5.9015 10.179C6.2495 10.3385 6.66275 10.4255 7.134 10.4255C7.47475 10.4255 7.79375 10.3675 8.091 10.2588C8.38825 10.15 8.64925 9.99775 8.874 9.802C9.09875 9.60625 9.28 9.3815 9.4105 9.1205C9.541 8.8595 9.62075 8.584 9.628 8.28675H8.33025C8.323 8.439 8.28675 8.57675 8.2215 8.70725C8.15625 8.83775 8.06925 8.9465 7.9605 9.04075C7.85175 9.135 7.7285 9.2075 7.5835 9.25825C7.44575 9.309 7.30075 9.3235 7.1485 9.33075C6.8875 9.3235 6.67 9.27275 6.50325 9.164C6.32566 9.05188 6.17868 8.89743 6.0755 8.7145C5.974 8.53325 5.89425 8.31575 5.858 8.0765C5.82068 7.83661 5.8013 7.59427 5.8 7.3515V7.15575C5.8 6.902 5.82175 6.66275 5.858 6.4235ZM7.25 0C3.248 0 0 3.248 0 7.25C0 11.252 3.248 14.5 7.25 14.5C11.252 14.5 14.5 11.252 14.5 7.25C14.5 3.248 11.252 0 7.25 0ZM7.25 13.05C4.05275 13.05 1.45 10.4473 1.45 7.25C1.45 4.05275 4.05275 1.45 7.25 1.45C10.4473 1.45 13.05 4.05275 13.05 7.25C13.05 10.4473 10.4473 13.05 7.25 13.05Z" fill="white"/>
</svg>
