<svg width="23" height="24" viewBox="0 0 23 24" fill="none" xmlns="http://www.w3.org/2000/svg">
<path fill-rule="evenodd" clip-rule="evenodd" d="M22.4757 11.9092C22.4757 5.66523 17.4433 0.603516 11.2378 0.603516C5.03241 0.603516 0 5.66415 0 11.9092C0 17.5513 4.10984 22.2286 9.48259 23.0781V15.1781H6.62711V11.9081H9.48045V9.41871C9.48045 6.58691 11.1586 5.02026 13.7251 5.02026C14.956 5.02026 16.2414 5.24099 16.2414 5.24099V8.02327H14.8243C13.4287 8.02327 12.992 8.89542 12.992 9.7891V11.9103H16.1086L15.611 15.1792H12.9931V23.0792C18.3658 22.2307 22.4746 17.5545 22.4746 11.9103L22.4757 11.9092Z" fill="white"/>
</svg>
