<svg width="23" height="22" viewBox="0 0 23 22" fill="none" xmlns="http://www.w3.org/2000/svg">
<path d="M11.4756 0.341797C14.4643 0.341797 14.8372 0.352297 16.0098 0.404797C17.1813 0.457297 17.9788 0.632647 18.6806 0.893047C19.4066 1.15975 20.0182 1.52095 20.6298 2.1037C21.1897 2.6287 21.622 3.26395 21.8981 3.9643C22.1698 4.63315 22.3546 5.39545 22.4096 6.5137C22.4613 7.633 22.4756 7.98895 22.4756 10.8418C22.4756 13.6946 22.4646 14.0506 22.4096 15.1699C22.3546 16.2881 22.1698 17.0494 21.8981 17.7193C21.6227 18.4205 21.1898 19.0555 20.6298 19.5799C20.0798 20.1133 19.4143 20.527 18.6806 20.7905C17.9799 21.0499 17.1813 21.2263 16.0098 21.2788C14.8372 21.3281 14.4643 21.3418 11.4756 21.3418C8.48689 21.3418 8.11399 21.3313 6.94139 21.2788C5.76989 21.2263 4.97239 21.0499 4.27059 20.7905C3.53614 20.5275 2.87087 20.1143 2.32139 19.5799C1.76193 19.0551 1.32911 18.4201 1.05309 17.7193C0.780286 17.0504 0.596586 16.2881 0.541586 15.1699C0.489886 14.0506 0.475586 13.6946 0.475586 10.8418C0.475586 7.98895 0.486586 7.633 0.541586 6.5137C0.596586 5.3944 0.780286 4.6342 1.05309 3.9643C1.32835 3.26308 1.76127 2.62798 2.32139 2.1037C2.87102 1.56949 3.53626 1.15631 4.27059 0.893047C4.97239 0.632647 5.76879 0.457297 6.94139 0.404797C8.11399 0.355447 8.48689 0.341797 11.4756 0.341797ZM11.4756 5.5918C10.0169 5.5918 8.61795 6.14492 7.5865 7.12949C6.55505 8.11405 5.97559 9.44941 5.97559 10.8418C5.97559 12.2342 6.55505 13.5695 7.5865 14.5541C8.61795 15.5387 10.0169 16.0918 11.4756 16.0918C12.9343 16.0918 14.3332 15.5387 15.3647 14.5541C16.3961 13.5695 16.9756 12.2342 16.9756 10.8418C16.9756 9.44941 16.3961 8.11405 15.3647 7.12949C14.3332 6.14492 12.9343 5.5918 11.4756 5.5918ZM18.6256 5.3293C18.6256 4.9812 18.4807 4.64736 18.2229 4.40122C17.965 4.15508 17.6153 4.0168 17.2506 4.0168C16.8859 4.0168 16.5362 4.15508 16.2783 4.40122C16.0205 4.64736 15.8756 4.9812 15.8756 5.3293C15.8756 5.67739 16.0205 6.01123 16.2783 6.25737C16.5362 6.50352 16.8859 6.6418 17.2506 6.6418C17.6153 6.6418 17.965 6.50352 18.2229 6.25737C18.4807 6.01123 18.6256 5.67739 18.6256 5.3293ZM11.4756 7.6918C12.3508 7.6918 13.1902 8.02367 13.809 8.61441C14.4279 9.20515 14.7756 10.0064 14.7756 10.8418C14.7756 11.6772 14.4279 12.4784 13.809 13.0692C13.1902 13.6599 12.3508 13.9918 11.4756 13.9918C10.6004 13.9918 9.761 13.6599 9.14213 13.0692C8.52326 12.4784 8.17559 11.6772 8.17559 10.8418C8.17559 10.0064 8.52326 9.20515 9.14213 8.61441C9.761 8.02367 10.6004 7.6918 11.4756 7.6918Z" fill="white"/>
</svg>
