<svg width="17" height="22" viewBox="0 0 17 22" fill="none" xmlns="http://www.w3.org/2000/svg">
<path fill-rule="evenodd" clip-rule="evenodd" d="M8.25 0.896973C6.85761 0.896973 5.52225 1.4501 4.53769 2.43466C3.55312 3.41923 3 4.75459 3 6.14697V9.14697C2.20435 9.14697 1.44129 9.46304 0.87868 10.0257C0.316071 10.5883 0 11.3513 0 12.147V18.897C0 19.6926 0.316071 20.4557 0.87868 21.0183C1.44129 21.5809 2.20435 21.897 3 21.897H13.5C14.2956 21.897 15.0587 21.5809 15.6213 21.0183C16.1839 20.4557 16.5 19.6926 16.5 18.897V12.147C16.5 11.3513 16.1839 10.5883 15.6213 10.0257C15.0587 9.46304 14.2956 9.14697 13.5 9.14697V6.14697C13.5 3.24697 11.15 0.896973 8.25 0.896973ZM12 9.14697V6.14697C12 5.15241 11.6049 4.19858 10.9017 3.49532C10.1984 2.79206 9.24456 2.39697 8.25 2.39697C7.25544 2.39697 6.30161 2.79206 5.59835 3.49532C4.89509 4.19858 4.5 5.15241 4.5 6.14697V9.14697H12Z" fill="#042966"/>
</svg>
