<svg width="132" height="24" viewBox="0 0 132 24" fill="none" xmlns="http://www.w3.org/2000/svg">
<path fill-rule="evenodd" clip-rule="evenodd" d="M22.4757 11.9092C22.4757 5.66523 17.4433 0.603516 11.2378 0.603516C5.03241 0.603516 0 5.66415 0 11.9092C0 17.5513 4.10984 22.2286 9.48259 23.0781V15.1781H6.62711V11.9081H9.48045V9.41871C9.48045 6.58691 11.1586 5.02026 13.7251 5.02026C14.956 5.02026 16.2414 5.24099 16.2414 5.24099V8.02327H14.8243C13.4287 8.02327 12.992 8.89542 12.992 9.7891V11.9103H16.1086L15.611 15.1792H12.9931V23.0792C18.3658 22.2307 22.4746 17.5545 22.4746 11.9103L22.4757 11.9092Z" fill="white"/>
<path d="M65.4756 1.3418C68.4643 1.3418 68.8372 1.3523 70.0098 1.4048C71.1813 1.4573 71.9788 1.63265 72.6806 1.89305C73.4066 2.15975 74.0182 2.52095 74.6298 3.1037C75.1897 3.6287 75.622 4.26395 75.8981 4.9643C76.1698 5.63315 76.3546 6.39545 76.4096 7.5137C76.4613 8.633 76.4756 8.98895 76.4756 11.8418C76.4756 14.6946 76.4646 15.0506 76.4096 16.1699C76.3546 17.2881 76.1698 18.0494 75.8981 18.7193C75.6227 19.4205 75.1898 20.0555 74.6298 20.5799C74.0798 21.1133 73.4143 21.527 72.6806 21.7905C71.9799 22.0499 71.1813 22.2263 70.0098 22.2788C68.8372 22.3281 68.4643 22.3418 65.4756 22.3418C62.4869 22.3418 62.114 22.3313 60.9414 22.2788C59.7699 22.2263 58.9724 22.0499 58.2706 21.7905C57.5361 21.5275 56.8709 21.1143 56.3214 20.5799C55.7619 20.0551 55.3291 19.4201 55.0531 18.7193C54.7803 18.0504 54.5966 17.2881 54.5416 16.1699C54.4899 15.0506 54.4756 14.6946 54.4756 11.8418C54.4756 8.98895 54.4866 8.633 54.5416 7.5137C54.5966 6.3944 54.7803 5.6342 55.0531 4.9643C55.3283 4.26308 55.7613 3.62798 56.3214 3.1037C56.871 2.56949 57.5363 2.15631 58.2706 1.89305C58.9724 1.63265 59.7688 1.4573 60.9414 1.4048C62.114 1.35545 62.4869 1.3418 65.4756 1.3418ZM65.4756 6.5918C64.0169 6.5918 62.6179 7.14492 61.5865 8.12949C60.555 9.11405 59.9756 10.4494 59.9756 11.8418C59.9756 13.2342 60.555 14.5695 61.5865 15.5541C62.6179 16.5387 64.0169 17.0918 65.4756 17.0918C66.9343 17.0918 68.3332 16.5387 69.3647 15.5541C70.3961 14.5695 70.9756 13.2342 70.9756 11.8418C70.9756 10.4494 70.3961 9.11405 69.3647 8.12949C68.3332 7.14492 66.9343 6.5918 65.4756 6.5918ZM72.6256 6.3293C72.6256 5.9812 72.4807 5.64736 72.2229 5.40122C71.965 5.15508 71.6153 5.0168 71.2506 5.0168C70.8859 5.0168 70.5362 5.15508 70.2783 5.40122C70.0205 5.64736 69.8756 5.9812 69.8756 6.3293C69.8756 6.67739 70.0205 7.01123 70.2783 7.25737C70.5362 7.50352 70.8859 7.6418 71.2506 7.6418C71.6153 7.6418 71.965 7.50352 72.2229 7.25737C72.4807 7.01123 72.6256 6.67739 72.6256 6.3293ZM65.4756 8.6918C66.3508 8.6918 67.1902 9.02367 67.809 9.61441C68.4279 10.2051 68.7756 11.0064 68.7756 11.8418C68.7756 12.6772 68.4279 13.4784 67.809 14.0692C67.1902 14.6599 66.3508 14.9918 65.4756 14.9918C64.6004 14.9918 63.761 14.6599 63.1421 14.0692C62.5233 13.4784 62.1756 12.6772 62.1756 11.8418C62.1756 11.0064 62.5233 10.2051 63.1421 9.61441C63.761 9.02367 64.6004 8.6918 65.4756 8.6918Z" fill="white"/>
<path d="M131.973 3.65657C131.092 4.09349 130.159 4.38138 129.205 4.51115C130.208 3.84089 130.962 2.77636 131.325 1.51713C130.377 2.14883 129.341 2.5934 128.263 2.8294C127.809 2.28605 127.263 1.85382 126.658 1.55897C126.052 1.26412 125.401 1.11282 124.743 1.11427C122.08 1.11427 119.923 3.53857 119.923 6.52782C119.922 6.94361 119.963 7.35816 120.048 7.76262C118.137 7.66052 116.267 7.10446 114.556 6.13C112.844 5.15553 111.33 3.78413 110.11 2.10354C109.682 2.92725 109.456 3.86703 109.455 4.82462C109.455 6.70065 110.313 8.36095 111.609 9.33234C110.841 9.3118 110.088 9.07997 109.415 8.65654V8.72328C109.415 11.3502 111.081 13.5337 113.284 14.032C112.869 14.1575 112.442 14.2212 112.014 14.2215C111.71 14.2215 111.406 14.1881 111.107 14.1202C111.72 16.2715 113.503 17.8365 115.614 17.8806C113.584 19.6671 111.02 20.4719 108.476 20.1213C110.679 21.7271 113.24 22.5764 115.855 22.5683C124.733 22.5683 129.583 14.3168 129.583 7.15952C129.583 6.92472 129.577 6.68992 129.568 6.46108C130.509 5.69686 131.324 4.74715 131.973 3.65657Z" fill="white"/>
</svg>
