<svg width="219" height="31" viewBox="0 0 219 31" fill="none" xmlns="http://www.w3.org/2000/svg">
<path d="M15.9755 3.08156L18.2799 10.1738C18.4807 10.7918 19.0567 11.2102 19.7065 11.2102H27.1637C27.6481 11.2102 27.8494 11.83 27.4576 12.1147L21.4246 16.498C20.8989 16.8799 20.6789 17.557 20.8797 18.175L23.1841 25.2672C23.3338 25.7279 22.8065 26.1109 22.4147 25.8262L16.3817 21.443C15.8559 21.0611 15.1441 21.0611 14.6183 21.443L8.58533 25.8262C8.19348 26.1109 7.66624 25.7279 7.81591 25.2672L10.1203 18.175C10.3211 17.557 10.1011 16.8799 9.5754 16.498L3.54241 12.1147C3.15056 11.83 3.35194 11.2102 3.83631 11.2102H11.2935C11.9433 11.2102 12.5193 10.7918 12.7201 10.1738L15.0245 3.08156C15.1741 2.6209 15.8259 2.6209 15.9755 3.08156Z" fill="#F4FB5C" stroke="black"/>
<path d="M62.9755 3.08156L65.2799 10.1738C65.4807 10.7918 66.0567 11.2102 66.7065 11.2102H74.1637C74.6481 11.2102 74.8494 11.83 74.4576 12.1147L68.4246 16.498C67.8989 16.8799 67.6789 17.557 67.8797 18.175L70.1841 25.2672C70.3338 25.7279 69.8065 26.1109 69.4147 25.8262L63.3817 21.443C62.8559 21.0611 62.1441 21.0611 61.6183 21.443L55.5853 25.8262C55.1935 26.1109 54.6662 25.7279 54.8159 25.2672L57.1203 18.175C57.3211 17.557 57.1011 16.8799 56.5754 16.498L50.5424 12.1147C50.1506 11.83 50.3519 11.2102 50.8363 11.2102H58.2935C58.9433 11.2102 59.5193 10.7918 59.7201 10.1738L62.0245 3.08156C62.1741 2.6209 62.8259 2.6209 62.9755 3.08156Z" fill="#F4FB5C" stroke="black"/>
<path d="M109.976 3.08156L112.28 10.1738C112.481 10.7918 113.057 11.2102 113.707 11.2102H121.164C121.648 11.2102 121.849 11.83 121.458 12.1147L115.425 16.498C114.899 16.8799 114.679 17.557 114.88 18.175L117.184 25.2672C117.334 25.7279 116.807 26.1109 116.415 25.8262L110.382 21.443C109.856 21.0611 109.144 21.0611 108.618 21.443L102.585 25.8262C102.193 26.1109 101.666 25.7279 101.816 25.2672L104.12 18.175C104.321 17.557 104.101 16.8799 103.575 16.498L97.5424 12.1147C97.1506 11.83 97.3519 11.2102 97.8363 11.2102H105.293C105.943 11.2102 106.519 10.7918 106.72 10.1738L109.024 3.08156C109.174 2.6209 109.826 2.6209 109.976 3.08156Z" fill="#F4FB5C" stroke="black"/>
<path d="M156.974 2.98265L159.277 9.84218C159.482 10.4531 160.055 10.8647 160.699 10.8647H168.08C168.569 10.8647 168.768 11.4929 168.368 11.7738L162.453 15.9324C161.91 16.3142 161.683 17.0076 161.894 17.6369L164.167 24.405C164.32 24.8628 163.8 25.251 163.405 24.9732L157.363 20.7249C156.845 20.3609 156.155 20.3609 155.637 20.7249L149.595 24.9732C149.2 25.251 148.68 24.8628 148.833 24.405L151.106 17.6369C151.317 17.0076 151.09 16.3142 150.547 15.9324L144.632 11.7738C144.232 11.4929 144.431 10.8647 144.92 10.8647H152.301C152.945 10.8647 153.518 10.4531 153.723 9.84218L156.026 2.98265C156.179 2.52818 156.821 2.52818 156.974 2.98265Z" fill="#F4FB5C" stroke="black"/>
<path d="M203.976 3.08156L206.28 10.1738C206.481 10.7918 207.057 11.2102 207.707 11.2102H215.164C215.648 11.2102 215.849 11.83 215.458 12.1147L209.425 16.498C208.899 16.8799 208.679 17.557 208.88 18.175L211.184 25.2672C211.334 25.7279 210.807 26.1109 210.415 25.8262L204.382 21.443C203.856 21.0611 203.144 21.0611 202.618 21.443L196.585 25.8262C196.193 26.1109 195.666 25.7279 195.816 25.2672L198.12 18.175C198.321 17.557 198.101 16.8799 197.575 16.498L191.542 12.1147C191.151 11.83 191.352 11.2102 191.836 11.2102H199.293C199.943 11.2102 200.519 10.7918 200.72 10.1738L203.024 3.08156C203.174 2.6209 203.826 2.6209 203.976 3.08156Z" fill="#F4FB5C" stroke="black"/>
</svg>
