<svg width="24" height="22" viewBox="0 0 24 22" fill="none" xmlns="http://www.w3.org/2000/svg">
<path d="M23.9729 2.65657C23.0917 3.09349 22.1594 3.38138 21.2054 3.51115C22.2078 2.84089 22.9616 1.77636 23.3254 0.517126C22.3772 1.14883 21.3412 1.5934 20.2634 1.8294C19.8092 1.28605 19.2628 0.853815 18.6577 0.558968C18.0525 0.264122 17.4011 0.112822 16.743 0.114268C14.08 0.114268 11.9235 2.53857 11.9235 5.52782C11.9216 5.94361 11.9633 6.35816 12.0477 6.76262C10.1374 6.66052 8.26681 6.10446 6.55558 5.13C4.84435 4.15553 3.33019 2.78413 2.10995 1.10354C1.68208 1.92725 1.45594 2.86703 1.45516 3.82462C1.45516 5.70065 2.31255 7.36095 3.60856 8.33234C2.84053 8.3118 2.08819 8.07997 1.41548 7.65654V7.72328C1.41548 10.3502 3.08118 12.5337 5.28366 13.032C4.8693 13.1575 4.44245 13.2212 4.01376 13.2215C3.70986 13.2215 3.40596 13.1881 3.10728 13.1202C3.7203 15.2715 5.50296 16.8365 7.61354 16.8806C5.58386 18.6671 3.02032 19.4719 0.475586 19.1213C2.67906 20.7271 5.24043 21.5764 7.85478 21.5683C16.7326 21.5683 21.5835 13.3168 21.5835 6.15952C21.5835 5.92472 21.5772 5.68992 21.5678 5.46108C22.5092 4.69686 23.3236 3.74715 23.9729 2.65657Z" fill="white"/>
</svg>
