<svg width="24" height="25" viewBox="0 0 24 25" fill="none" xmlns="http://www.w3.org/2000/svg">
<path fill-rule="evenodd" clip-rule="evenodd" d="M20.2277 21.1317C21.4203 20.0111 22.3704 18.6577 23.0192 17.1554C23.6681 15.653 24.0019 14.0335 24 12.397C24 5.76927 18.6277 0.396973 12 0.396973C5.37231 0.396973 8.01133e-06 5.76927 8.01133e-06 12.397C-0.00188553 14.0335 0.331905 15.653 0.980745 17.1554C1.62959 18.6577 2.57969 20.0111 3.77231 21.1317C5.99623 23.2325 8.94073 24.4011 12 24.3969C15.0593 24.4011 18.0038 23.2325 20.2277 21.1317ZM4.79385 19.5502C5.65794 18.4691 6.75448 17.5966 8.00201 16.9975C9.24955 16.3983 10.616 16.0879 12 16.0893C13.384 16.0879 14.7504 16.3983 15.998 16.9975C17.2455 17.5966 18.342 18.4691 19.2061 19.5502C18.2634 20.5024 17.141 21.258 15.904 21.7731C14.6669 22.2882 13.34 22.5525 12 22.5508C10.66 22.5525 9.33305 22.2882 8.09603 21.7731C6.85901 21.258 5.73658 20.5024 4.79385 19.5502ZM16.6154 8.70465C16.6154 9.92873 16.1291 11.1027 15.2636 11.9682C14.398 12.8338 13.2241 13.32 12 13.32C10.7759 13.32 9.60198 12.8338 8.73643 11.9682C7.87088 11.1027 7.38461 9.92873 7.38461 8.70465C7.38461 7.48058 7.87088 6.30664 8.73643 5.44109C9.60198 4.57554 10.7759 4.08928 12 4.08928C13.2241 4.08928 14.398 4.57554 15.2636 5.44109C16.1291 6.30664 16.6154 7.48058 16.6154 8.70465Z" fill="#042966"/>
</svg>
